<?xml version="1.0" standalone="no"?>
<!DOCTYPE svg PUBLIC "-//W3C//DTD SVG 20010904//EN"
 "http://www.w3.org/TR/2001/REC-SVG-20010904/DTD/svg10.dtd">
<svg version="1.0" xmlns="http://www.w3.org/2000/svg"
 width="476.000000pt" height="510.000000pt" viewBox="0 0 476.000000 510.000000"
 preserveAspectRatio="xMidYMid meet">

<g transform="translate(0.000000,510.000000) scale(0.100000,-0.100000)"
fill="#000000" stroke="none">
<path d="M1235 5093 c-129 -8 -274 -29 -370 -53 -198 -50 -313 -116 -461 -264
-308 -310 -341 -682 -92 -1043 64 -93 230 -252 336 -323 64 -43 78 -56 65 -61
-197 -71 -304 -124 -405 -198 -127 -94 -221 -236 -270 -406 -19 -68 -23 -103
-22 -235 0 -172 15 -252 75 -396 83 -200 264 -383 477 -486 90 -42 222 -86
317 -103 117 -21 415 -35 778 -35 l317 0 0 48 c-1 154 -40 256 -113 294 -39
20 -61 22 -302 29 -306 8 -393 19 -585 76 -232 68 -381 213 -435 422 -21 81
-21 226 -1 314 59 253 247 386 606 427 119 14 2076 21 2305 9 176 -9 293 -33
378 -75 125 -63 200 -144 247 -269 30 -81 39 -268 17 -372 -45 -211 -199 -372
-417 -438 -86 -25 -245 -43 -490 -56 -228 -11 -593 -10 -605 3 -4 3 -11 125
-16 270 -17 502 -35 620 -105 698 -51 57 -123 80 -261 87 l-113 6 0 -799 0
-800 46 -44 c162 -158 348 -431 405 -595 13 -36 15 2 19 360 l5 400 199 3
c242 3 283 -6 358 -76 42 -40 450 -590 866 -1170 135 -188 165 -215 251 -232
62 -12 511 -14 511 -2 0 12 -39 65 -570 783 -278 375 -511 690 -517 700 -11
15 8 24 213 94 236 82 303 115 400 199 405 352 419 1026 30 1435 -107 111
-254 201 -390 236 -145 37 -207 38 -1421 39 -1291 1 -1266 0 -1450 56 -263 81
-407 293 -393 579 9 174 76 310 198 401 143 108 323 140 795 140 l260 0 -76
33 c-162 71 -295 160 -463 311 -85 75 -94 81 -131 79z"/>
<path d="M1341 5093 c1 -14 173 -162 257 -222 154 -110 354 -201 441 -201 l49
0 6 -92 c3 -51 8 -194 11 -318 10 -380 28 -475 99 -546 51 -52 109 -70 250
-80 l106 -7 0 39 c0 22 3 353 7 737 l6 697 -616 0 c-340 0 -617 -3 -616 -7z"/>
<path d="M2080 653 l0 -643 240 0 240 0 0 278 c0 315 1 312 -85 482 -78 155
-183 300 -328 455 l-66 70 -1 -642z"/>
</g>
</svg>
